<svg xmlns="http://www.w3.org/2000/svg" enable-background="new 0 0 64 64" viewBox="0 0 64 64" id="greentap" fill=""><path  d="M24.8,9.9c-0.1,0-0.2,0-0.3,0c-2.9,0.8-5.4,1.2-7.2,1.2c-1.9,0-2.7-0.4-3-0.7c-0.4-0.5-0.5-2.8,0-3.3
		c0.4-0.3,1.2-0.7,3-0.7s4.3,0.4,7.2,1.2c0.5,0.1,1-0.1,1.2-0.5c0.8-1.4,2.4-2.2,4.2-2.2S33.2,5.7,34,7c0.2,0.4,0.7,0.6,1.2,0.5
		c2.9-0.8,5.4-1.2,7.2-1.2c1.9,0,2.7,0.4,3,0.7c0.4,0.5,0.4,2.8,0,3.3c-0.4,0.3-1.2,0.7-3,0.7s-4.3-0.4-7.2-1.2
		c-0.5-0.1-1,0.1-1.2,0.5c-0.3,0.5-0.6,0.9-1.1,1.2l0,0c-1.7,1.2-4.4,1.2-6.1,0l0,0c-0.4-0.3-0.8-0.7-1.1-1.2
		C25.5,10.1,25.2,9.9,24.8,9.9z M26.5,20.3c0.5-0.1,0.8-0.6,0.8-1v-4.9l0,0c0.4,0.1,0.8,0.3,1.3,0.3l0,0c0.4,0.1,0.9,0.1,1.3,0.1
		s0.9,0,1.3-0.1l0,0c0.4-0.1,0.9-0.2,1.3-0.3l0,0v4.9c0,0.5,0.3,0.9,0.8,1c0,0,1.9,0.7,2.6,1.6h-12C24.5,20.9,26.5,20.3,26.5,20.3z
		 M18.9,25.8c0-1,0.8-1.8,1.8-1.8h2l0,0H37l0,0h2.1c1,0,1.8,0.8,1.8,1.8s-0.8,1.8-1.8,1.8h-2.5l0,0H20.7
		C19.7,27.7,18.9,26.8,18.9,25.8z M8.1,50.4c0,1.7-1.4,3.1-3.1,3.1H0V33h5c1.7,0,3.1,1.4,3.1,3.1V50.4z M64,56.9
		c0,1.2-1,2.2-2.2,2.2h-8c-1.2,0-2.2-1-2.2-2.2v-3.1c0-2.6-2.1-4.7-4.7-4.7H10.3V37.3h3.3c3.6-0.3,6-1.6,7.4-3.8l2.3-3.7h12.9l4,3.7
		c1.8,1.6,4.3,2.4,7.5,2.1c0.2,0,1.6,0,2.8,0c7.4,0,13.5,6,13.5,13.5C64,49.1,64,56.9,64,56.9z"></path></svg>